<?xml version="1.0" standalone="no"?>
<!DOCTYPE svg PUBLIC "-//W3C//DTD SVG 20010904//EN"
 "http://www.w3.org/TR/2001/REC-SVG-20010904/DTD/svg10.dtd">
<svg version="1.0" xmlns="http://www.w3.org/2000/svg"
 width="222.000000pt" height="188.000000pt" viewBox="0 0 222.000000 188.000000"
 preserveAspectRatio="xMidYMid meet">

<g transform="translate(0.000000,188.000000) scale(0.100000,-0.100000)"
fill="#000000" stroke="none">
<path d="M782 1387 c-17 -18 -32 -36 -32 -40 0 -4 53 -7 118 -8 l117 0 60 -71
c33 -38 61 -66 62 -61 2 4 -10 53 -25 108 l-28 100 -120 3 -120 3 -32 -34z"/>
<path d="M1152 1308 c-17 -62 -30 -113 -29 -114 1 -1 31 31 66 72 l65 74 120
0 120 0 -39 40 -39 40 -117 0 -116 0 -31 -112z"/>
<path d="M780 1305 c0 -3 12 -23 26 -45 l27 -40 -37 -189 c-20 -104 -36 -194
-36 -200 0 -7 31 -11 93 -11 l93 0 39 40 39 40 -72 0 -72 0 0 205 0 205 -50 0
c-27 0 -50 -2 -50 -5z"/>
<path d="M1350 1105 l0 -205 -72 0 -73 -1 42 -39 42 -40 90 0 c49 0 92 3 94 8
2 4 -12 94 -33 200 -29 153 -34 196 -25 210 7 9 20 29 30 45 l17 27 -56 0 -56
0 0 -205z"/>
<path d="M980 1120 l0 -62 69 -79 70 -78 70 81 71 81 0 61 -1 61 -26 -30 c-69
-79 -111 -125 -116 -125 -3 0 -34 34 -71 76 l-66 75 0 -61z"/>
<path d="M500 670 c0 -47 3 -60 15 -60 8 0 15 8 15 18 1 16 1 16 11 0 14 -25
34 -22 47 5 l11 22 0 -22 c1 -14 7 -23 16 -23 12 0 15 13 15 60 0 74 -21 82
-49 18 l-17 -42 -17 42 c-26 64 -47 56 -47 -18z"/>
<path d="M670 670 l0 -60 40 0 c22 0 40 5 40 10 0 6 -11 10 -25 10 -16 0 -25
6 -25 15 0 8 9 15 20 15 11 0 20 5 20 10 0 6 -9 10 -20 10 -11 0 -20 5 -20 10
0 6 11 10 25 10 16 0 25 6 25 15 0 11 -11 15 -40 15 l-40 0 0 -60z"/>
<path d="M790 671 l0 -61 40 0 c22 0 40 5 40 10 0 6 -11 10 -24 10 -22 0 -25
5 -28 47 -5 73 -28 68 -28 -6z"/>
<path d="M932 714 c-42 -29 -18 -104 34 -104 26 0 50 20 59 47 4 17 -1 29 -19
48 -29 29 -43 31 -74 9z m57 -28 c15 -18 3 -46 -20 -46 -22 0 -34 22 -25 45 7
19 30 19 45 1z"/>
<path d="M1067 723 c-4 -3 -7 -30 -7 -60 l0 -53 35 0 c37 0 75 28 75 55 0 38
-79 83 -103 58z m69 -45 c4 -15 1 -25 -11 -34 -24 -18 -35 -9 -35 27 0 22 5
29 19 29 11 0 23 -9 27 -22z"/>
<path d="M1210 723 c0 -5 9 -21 20 -38 11 -16 20 -40 20 -52 0 -13 5 -23 10
-23 6 0 10 7 10 15 0 9 9 34 21 56 24 47 17 65 -11 29 l-19 -25 -16 23 c-16
21 -35 30 -35 15z"/>
<path d="M1360 670 c0 -58 15 -84 22 -37 2 14 11 23 26 25 18 3 22 -1 22 -22
0 -16 6 -26 15 -26 12 0 15 13 15 60 0 47 -3 60 -15 60 -9 0 -15 -9 -15 -25 0
-20 -5 -25 -25 -25 -20 0 -25 5 -25 25 0 14 -4 25 -10 25 -6 0 -10 -27 -10
-60z"/>
<path d="M1500 680 c0 -38 4 -52 19 -60 49 -25 81 1 81 67 0 58 -24 54 -28 -5
-2 -33 -7 -42 -22 -42 -21 0 -30 19 -30 61 0 16 -4 29 -10 29 -5 0 -10 -22
-10 -50z"/>
<path d="M1640 670 l0 -60 40 0 c45 0 71 29 50 55 -7 8 -9 18 -6 24 10 16 -23
41 -55 41 -29 0 -29 0 -29 -60z m60 20 c0 -5 -7 -10 -15 -10 -8 0 -15 5 -15
10 0 6 7 10 15 10 8 0 15 -4 15 -10z m8 -42 c-7 -19 -38 -22 -38 -4 0 10 9 16
21 16 12 0 19 -5 17 -12z"/>
</g>
</svg>
