<?xml version="1.0" encoding="UTF-8"?>
<svg version="1.1" xmlns="http://www.w3.org/2000/svg" width="222" height="188">
<path d="M0 0 C73.26 0 146.52 0 222 0 C222 62.04 222 124.08 222 188 C148.74 188 75.48 188 0 188 C0 125.96 0 63.92 0 0 Z " fill="#F9F9F9" transform="translate(0,0)"/>
<path d="M0 0 C1.5631897 0.00785522 1.5631897 0.00785522 3.15795898 0.01586914 C4.28266602 0.0190918 5.40737305 0.02231445 6.56616211 0.02563477 C7.75016602 0.03401367 8.93416992 0.04239258 10.15405273 0.05102539 C11.34192383 0.05553711 12.52979492 0.06004883 13.75366211 0.06469727 C16.69967499 0.07652864 19.64558954 0.09301252 22.59155273 0.11352539 C22.73778076 0.6483252 22.88400879 1.183125 23.03466797 1.73413086 C23.69730795 4.15285878 24.36314079 6.57069635 25.02905273 8.98852539 C25.25915039 9.8302832 25.48924805 10.67204102 25.72631836 11.53930664 C25.94868164 12.3449707 26.17104492 13.15063477 26.40014648 13.98071289 C26.60438232 14.72434082 26.80861816 15.46796875 27.01904297 16.23413086 C27.5537154 18.17715489 27.5537154 18.17715489 28.59155273 20.11352539 C28.85709961 19.17250977 29.12264648 18.23149414 29.39624023 17.26196289 C29.74944336 16.01672852 30.10264648 14.77149414 30.46655273 13.48852539 C30.98862305 11.64387695 30.98862305 11.64387695 31.52124023 9.76196289 C32.47321647 6.5169052 33.49866491 3.31342217 34.59155273 0.11352539 C38.44513746 -0.06186241 42.29768712 -0.16768923 46.15405273 -0.26147461 C47.78310547 -0.33688477 47.78310547 -0.33688477 49.44506836 -0.41381836 C54.83637365 -0.51214004 58.60044758 -0.52625754 62.86889648 3.01196289 C64.49755859 4.61889648 64.49755859 4.61889648 65.59155273 6.11352539 C65.59155273 6.77352539 65.59155273 7.43352539 65.59155273 8.11352539 C64.91165283 8.0914502 64.23175293 8.069375 63.53125 8.04663086 C50.17224937 7.02823747 50.17224937 7.02823747 38.09936523 11.26586914 C35.9001948 13.7871403 34.21755776 16.19746679 32.59155273 19.11352539 C31.07983398 21.43774414 31.07983398 21.43774414 29.59155273 23.11352539 C28.60155273 23.11352539 27.61155273 23.11352539 26.59155273 23.11352539 C24.65405273 21.03149414 24.65405273 21.03149414 22.59155273 18.30102539 C19.88618735 14.70793807 19.88618735 14.70793807 16.84155273 11.41430664 C15.59155273 10.11352539 15.59155273 10.11352539 15.59155273 8.11352539 C7.34155273 8.11352539 -0.90844727 8.11352539 -9.40844727 8.11352539 C-2.55731922 0.12054267 -2.55731922 0.12054267 0 0 Z " fill="#121212" transform="translate(83.408447265625,45.886474609375)"/>
<path d="M0 0 C3.63 0 7.26 0 11 0 C9.95833333 1.59505208 8.91666667 3.19010417 7.875 4.78515625 C5.78488952 10.07574841 7.21488381 15.92443961 8.3125 21.32421875 C8.44567627 21.99290482 8.57885254 22.66159088 8.71606445 23.35054016 C9.13774651 25.46418441 9.5681659 27.57590854 10 29.6875 C10.4308089 31.80998076 10.85961607 33.93280687 11.28393555 36.05659485 C11.66780249 37.97574088 12.05833139 39.89355085 12.44921875 41.8112793 C13 45 13 45 13 49 C9.81346778 49.20521899 6.62864948 49.32822933 3.4375 49.4375 C2.54224609 49.49615234 1.64699219 49.55480469 0.72460938 49.61523438 C-3.21019986 49.71612692 -5.92275571 49.7560901 -9.21435547 47.44580078 C-10.97554555 45.70945994 -12.5532863 44.00489219 -14 42 C-14 41.67 -14 41.34 -14 41 C-9.38 41 -4.76 41 0 41 C0 27.47 0 13.94 0 0 Z " fill="#101010" transform="translate(135,57)"/>
<path d="M0 0 C3.3 0 6.6 0 10 0 C10 13.53 10 27.06 10 41 C14.62 41 19.24 41 24 41 C18.125 47.875 18.125 47.875 17 49 C15.58429877 49.08651611 14.164405 49.10704904 12.74609375 49.09765625 C11.89208984 49.09443359 11.03808594 49.09121094 10.15820312 49.08789062 C9.26037109 49.07951172 8.36253906 49.07113281 7.4375 49.0625 C6.53580078 49.05798828 5.63410156 49.05347656 4.70507812 49.04882812 C2.46998686 49.03700225 0.23502563 49.0205222 -2 49 C-1.31192714 39.72828466 0.51001981 30.73593975 2.359375 21.63671875 C2.58367187 20.48300781 2.80796875 19.32929687 3.0390625 18.140625 C3.35157959 16.58649902 3.35157959 16.58649902 3.67041016 15.00097656 C4.1392873 10.73176337 3.91573274 7.31865515 1.4375 3.75 C0.963125 3.1725 0.48875 2.595 0 2 C0 1.34 0 0.68 0 0 Z " fill="#090909" transform="translate(78,57)"/>
<path d="M0 0 C0.95906104 4.84858635 1.43086468 9.50351768 -1.11328125 13.94238281 C-2.57253292 15.97146623 -4.10893358 17.86514846 -5.75 19.75 C-6.55679199 20.68030029 -6.55679199 20.68030029 -7.37988281 21.62939453 C-10.36891167 24.8521971 -10.36891167 24.8521971 -12 26 C-16.54820609 26 -17.49838268 25.08451668 -20.62011719 21.98510742 C-21.15797852 21.41252197 -21.69583984 20.83993652 -22.25 20.25 C-22.7955957 19.67032471 -23.34119141 19.09064941 -23.90332031 18.4934082 C-27.38863572 14.48138184 -28.80235529 11.67826058 -28.75 6.1875 C-28.421875 3.16796875 -28.421875 3.16796875 -28 1 C-23.58809404 4.5634625 -19.78172486 8.22422771 -16.26171875 12.6796875 C-15.84535156 13.11539063 -15.42898437 13.55109375 -15 14 C-14.34 14 -13.68 14 -13 14 C-11.46148234 12.28048026 -9.99268241 10.49812503 -8.5625 8.6875 C-1.66928105 0 -1.66928105 0 0 0 Z " fill="#090909" transform="translate(126,70)"/>
<path d="M0 0 C3.85358472 -0.1753878 7.70613439 -0.28121462 11.5625 -0.375 C13.19155273 -0.45041016 13.19155273 -0.45041016 14.85351562 -0.52734375 C20.24482091 -0.62566543 24.00889485 -0.63978293 28.27734375 2.8984375 C29.90600586 4.50537109 29.90600586 4.50537109 31 6 C31 6.66 31 7.32 31 8 C30.32533691 7.97268799 29.65067383 7.94537598 28.95556641 7.91723633 C15.35478976 6.85201422 15.35478976 6.85201422 3.21484375 11.515625 C0.74994154 14.08193408 -1.15280554 16.96139015 -3 20 C-3.33 20 -3.66 20 -4 20 C-4.66268329 12.87615459 -2.25388064 6.69120815 0 0 Z " fill="#0A0A0A" transform="translate(118,46)"/>
<path d="M0 0 C1.32 0.33 2.64 0.66 4 1 C5.25 3.5625 5.25 3.5625 6 6 C6.598125 5.01 7.19625 4.02 7.8125 3 C8.8953125 1.515 8.8953125 1.515 10 0 C10.99 0 11.98 0 13 0 C13 3.96 13 7.92 13 12 C12.01 12 11.02 12 10 12 C9.67 11.34 9.34 10.68 9 10 C8.67 10.66 8.34 11.32 8 12 C7.4225 11.814375 6.845 11.62875 6.25 11.4375 C3.69606643 10.7761831 3.69606643 10.7761831 0 12 C0 8.04 0 4.08 0 0 Z " fill="#181818" transform="translate(50,115)"/>
<path d="M0 0 C6.25925926 -0.48148148 6.25925926 -0.48148148 9.5 1.625 C11 4 11 4 10.9375 7.125 C10 10 10 10 7 12 C4.66800612 12.07905064 2.33167378 12.08798769 0 12 C0 8.04 0 4.08 0 0 Z " fill="#4E4E4E" transform="translate(106,115)"/>
<path d="M0 0 C1.8125 1.0625 1.8125 1.0625 3 3 C3.375 6.5625 3.375 6.5625 3 10 C-0.23253796 12.15502531 -1.25150923 12.46856135 -5 12 C-6.8125 10.875 -6.8125 10.875 -8 9 C-8.39769128 5.81846974 -8.55198782 3.87155972 -6.8125 1.125 C-4.34492892 -0.40659584 -2.85480169 -0.42822025 0 0 Z " fill="#0E0E0E" transform="translate(99,115)"/>
<path d="M0 0 C3.375 -0.125 3.375 -0.125 7 0 C9 2 9 2 9.125 5.125 C9.08375 6.07375 9.0425 7.0225 9 8 C6.69 7.67 4.38 7.34 2 7 C2 7.99 2 8.98 2 10 C3.98 10 5.96 10 8 10 C8 10.66 8 11.32 8 12 C5.36 12 2.72 12 0 12 C0 8.04 0 4.08 0 0 Z " fill="#0A0A0A" transform="translate(164,115)"/>
<path d="M0 0 C0.99 0 1.98 0 3 0 C3 3.96 3 7.92 3 12 C2.01 12 1.02 12 0 12 C0 10.35 0 8.7 0 7 C-1.65 7 -3.3 7 -5 7 C-5 8.65 -5 10.3 -5 12 C-5.66 12 -6.32 12 -7 12 C-7 8.37 -7 4.74 -7 1 C-6.34 1 -5.68 1 -5 1 C-5 2.32 -5 3.64 -5 5 C-3.35 5 -1.7 5 0 5 C0 3.35 0 1.7 0 0 Z " fill="#121212" transform="translate(143,115)"/>
<path d="M0 0 C0.99 0 1.98 0 3 0 C3.08131463 1.43655854 3.13933559 2.8744483 3.1875 4.3125 C3.22230469 5.11300781 3.25710937 5.91351563 3.29296875 6.73828125 C3 9 3 9 1.6484375 10.7734375 C-0.65707304 12.48891217 -2.19756307 12.35928679 -5 12 C-7 10 -7 10 -7.1953125 7.8359375 C-7.17210937 7.02382812 -7.14890625 6.21171875 -7.125 5.375 C-7.10695312 4.55773437 -7.08890625 3.74046875 -7.0703125 2.8984375 C-7.04710937 2.27195312 -7.02390625 1.64546875 -7 1 C-6.34 1 -5.68 1 -5 1 C-4.67 3.31 -4.34 5.62 -4 8 C-2.68 8.33 -1.36 8.66 0 9 C0 6.03 0 3.06 0 0 Z " fill="#232323" transform="translate(157,115)"/>
<path d="M0 0 C2.64 0 5.28 0 8 0 C8 0.66 8 1.32 8 2 C6.02 2 4.04 2 2 2 C2 2.66 2 3.32 2 4 C3.65 4 5.3 4 7 4 C7 4.66 7 5.32 7 6 C5.35 6 3.7 6 2 6 C2 6.99 2 7.98 2 9 C3.98 9 5.96 9 8 9 C8 9.66 8 10.32 8 11 C5.36 11 2.72 11 0 11 C0 7.37 0 3.74 0 0 Z " fill="#0A0A0A" transform="translate(67,116)"/>
<path d="M0 0 C0.99 0 1.98 0 3 0 C3.33 1.32 3.66 2.64 4 4 C4.61875 3.34 5.2375 2.68 5.875 2 C8 0 8 0 10 0 C9.01 3.96 8.02 7.92 7 12 C6.01 12 5.02 12 4 12 C3.566875 10.4221875 3.566875 10.4221875 3.125 8.8125 C2.22774807 5.77181289 1.23576581 2.91287656 0 0 Z " fill="#272727" transform="translate(121,115)"/>
<path d="M0 0 C0.99 0 1.98 0 3 0 C3 2.97 3 5.94 3 9 C4.65 9 6.3 9 8 9 C8 9.99 8 10.98 8 12 C5.36 12 2.72 12 0 12 C0 8.04 0 4.08 0 0 Z " fill="#2D2D2D" transform="translate(79,115)"/>
<path d="M0 0 C3.375 -0.125 3.375 -0.125 7 0 C7.66 0.66 8.32 1.32 9 2 C8.625 4.625 8.625 4.625 8 7 C7.7525 6.360625 7.505 5.72125 7.25 5.0625 C6.18437567 2.81258459 6.18437567 2.81258459 3.875 2.25 C2.946875 2.12625 2.946875 2.12625 2 2 C2 4.31 2 6.62 2 9 C2.99 9.33 3.98 9.66 5 10 C3.35 10 1.7 10 0 10 C0 6.7 0 3.4 0 0 Z " fill="#000000" transform="translate(107,116)"/>
<path d="M0 0 C2.0625 0.4375 2.0625 0.4375 4 1 C4.5625 2.9375 4.5625 2.9375 5 5 C4 6 4 6 1.4375 6.0625 C0.2309375 6.0315625 0.2309375 6.0315625 -1 6 C-1.042721 4.33388095 -1.04063832 2.66617115 -1 1 C-0.67 0.67 -0.34 0.34 0 0 Z " fill="#E4E4E4" transform="translate(95,118)"/>
<path d="M0 0 C0.66 0 1.32 0 2 0 C2.103125 1.11375 2.20625 2.2275 2.3125 3.375 C2.539375 4.57125 2.76625 5.7675 3 7 C3.99 7.66 4.98 8.32 6 9 C6 9.66 6 10.32 6 11 C1.125 10.125 1.125 10.125 0 9 C-0.07179964 7.48071962 -0.08392007 5.95832518 -0.0625 4.4375 C-0.05347656 3.61121094 -0.04445312 2.78492187 -0.03515625 1.93359375 C-0.02355469 1.29550781 -0.01195312 0.65742187 0 0 Z " fill="#0D0D0D" transform="translate(150,116)"/>
<path d="M0 0 C2.475 0.495 2.475 0.495 5 1 C4.67 2.65 4.34 4.3 4 6 C2.68 6 1.36 6 0 6 C0 4.02 0 2.04 0 0 Z " fill="#E0E0E0" transform="translate(109,118)"/>
<path d="M0 0 C3.375 -0.125 3.375 -0.125 7 0 C7.66 0.66 8.32 1.32 9 2 C8.625 4.125 8.625 4.125 8 6 C6.35 5.67 4.7 5.34 3 5 C3 4.01 3 3.02 3 2 C2.01 1.34 1.02 0.68 0 0 Z " fill="#717171" transform="translate(164,115)"/>
<path d="M0 0 C0.3403125 0.9590625 0.3403125 0.9590625 0.6875 1.9375 C1.85250896 4.27193661 1.85250896 4.27193661 4.625 4.75 C5.40875 4.8325 6.1925 4.915 7 5 C6.67 5.99 6.34 6.98 6 8 C1.25 7.25 1.25 7.25 -1 5 C-0.625 2.375 -0.625 2.375 0 0 Z " fill="#0C0C0C" transform="translate(92,119)"/>
<path d="M0 0 C2.64 0 5.28 0 8 0 C7.67 1.32 7.34 2.64 7 4 C4.69 3.67 2.38 3.34 0 3 C0 2.01 0 1.02 0 0 Z " fill="#838383" transform="translate(166,122)"/>
<path d="M0 0 C0.598125 0.350625 1.19625 0.70125 1.8125 1.0625 C1.4825 2.7125 1.1525 4.3625 0.8125 6.0625 C0.565 5.44375 0.3175 4.825 0.0625 4.1875 C-1.39378639 1.71181313 -2.56562506 1.11124998 -5.1875 0.0625 C-2.1875 -0.9375 -2.1875 -0.9375 0 0 Z " fill="#080808" transform="translate(114.1875,116.9375)"/>
<path d="M0 0 C1.2065625 0.0309375 1.2065625 0.0309375 2.4375 0.0625 C1.4784375 0.6503125 1.4784375 0.6503125 0.5 1.25 C-2.00028819 3.44722296 -2.21200425 4.82041433 -2.5625 8.0625 C-3.5525 7.0725 -4.5425 6.0825 -5.5625 5.0625 C-3.15007962 0.07683121 -3.15007962 0.07683121 0 0 Z " fill="#393939" transform="translate(96.5625,114.9375)"/>
</svg>
